<?xml version="1.0" standalone="no"?>
<!DOCTYPE svg PUBLIC "-//W3C//DTD SVG 20010904//EN"
 "http://www.w3.org/TR/2001/REC-SVG-20010904/DTD/svg10.dtd">
<svg version="1.0" xmlns="http://www.w3.org/2000/svg"
 width="796.000000pt" height="796.000000pt" viewBox="0 0 796.000000 796.000000"
 preserveAspectRatio="xMidYMid meet">
<metadata>
Created by potrace 1.11, written by Peter Selinger 2001-2013
</metadata>
<g transform="translate(0.000000,796.000000) scale(0.100000,-0.100000)"
fill="#000000" stroke="none">
<path d="M2837 7531 l-417 -419 160 -160 160 -159 -55 -56 c-30 -30 -55 -60
-55 -65 0 -5 952 -962 2117 -2126 l2116 -2117 424 424 424 424 -160 161 -161
160 61 60 60 59 -2116 2116 c-1164 1165 -2122 2117 -2128 2117 -7 -1 -200
-189 -430 -419z"/>
<path d="M1808 6301 c-230 -230 -418 -423 -418 -428 0 -6 70 -80 155 -166
l154 -155 -59 -60 -59 -61 1062 -1062 c584 -584 1538 -1538 2121 -2121 l1059
-1059 424 424 425 424 -157 156 c-86 86 -155 161 -153 166 1 6 27 35 56 65
l52 54 -2120 2121 c-1167 1167 -2122 2121 -2123 2121 -1 -1 -190 -189 -419
-419z"/>
<path d="M643 5136 l-423 -423 160 -160 160 -160 -60 -60 -60 -60 2121 -2122
2122 -2122 424 424 424 424 -159 160 -160 160 59 61 59 61 -2121 2120 c-1166
1167 -2121 2121 -2122 2121 -1 -1 -192 -191 -424 -424z"/>
</g>
</svg>
