<svg version="1.0" xmlns="http://www.w3.org/2000/svg" width="1061.333" height="1061.333" viewBox="0 0 796 796"><path d="M283.7 42.9L242 84.8l16 16 16 15.9-5.5 5.6c-3 3-5.5 6-5.5 6.5s95.2 96.2 211.7 212.6l211.6 211.7 42.4-42.4 42.4-42.4-16-16.1-16.1-16 6.1-6 6-5.9-211.6-211.6C423.1 96.2 327.3 1 326.7 1c-.7.1-20 18.9-43 41.9zm-102.9 123c-23 23-41.8 42.3-41.8 42.8 0 .6 7 8 15.5 16.6l15.4 15.5-5.9 6-5.9 6.1 106.2 106.2 212.1 212.1 105.9 105.9 42.4-42.4 42.5-42.4-15.7-15.6c-8.6-8.6-15.5-16.1-15.3-16.6.1-.6 2.7-3.5 5.6-6.5l5.2-5.4-212-212.1C318.3 219.4 222.8 124 222.7 124c-.1.1-19 18.9-41.9 41.9zM64.3 282.4L22 324.7l16 16 16 16-6 6-6 6 212.1 212.2 212.2 212.2 42.4-42.4 42.4-42.4-15.9-16-16-16 5.9-6.1 5.9-6.1-212.1-212C202.3 335.4 106.8 240 106.7 240c-.1.1-19.2 19.1-42.4 42.4z"/></svg>